<svg xmlns="http://www.w3.org/2000/svg" version="1.1" xmlns:xlink="http://www.w3.org/1999/xlink" xmlns:svgjs="http://svgjs.com/svgjs" width="1440" height="560" preserveAspectRatio="none" viewBox="0 0 1440 560"><g mask="url(&quot;#SvgjsMask1000&quot;)" fill="none"><rect width="1440" height="560" x="0" y="0" fill="#0e2a47"></rect><path d="M376.56 497.23 a20.22 20.22 0 1 0 40.44 0 a20.22 20.22 0 1 0 -40.44 0z" fill="#e73635"></path><path d="M252.87 511.19L290.55 511.19L290.55 526.45L252.87 526.45z" fill="#037b0b"></path><path d="M890.64 132.38a44.56 44.56 0 1 0 23.47-85.97z" fill="#e73635"></path><path d="M1236.68 83.45 a44.91 44.91 0 1 0 89.82 0 a44.91 44.91 0 1 0 -89.82 0z" fill="#d3b714"></path><path d="M653.08 16.22a28.9 28.9 0 1 0 56.08-14.02z" fill="#d3b714"></path><path d="M325.4 394.91L371.61 394.91L371.61 417.29L325.4 417.29z" stroke="#e73635"></path><path d="M920.95 517.88L950.63 517.88L950.63 558.78L920.95 558.78z" stroke="#d3b714"></path><path d="M577.3 113.08 a24.06 24.06 0 1 0 48.12 0 a24.06 24.06 0 1 0 -48.12 0z" stroke="#e73635"></path><path d="M1064.06 485.01L1065.07 485.01L1065.07 486.02L1064.06 486.02z" fill="#d3b714"></path><path d="M689.43 403.56a33.05 33.05 0 1 0 2.47 66.05z" stroke="#e73635"></path><path d="M1290.92 196.18a1 1 0 1 0-1.99 0.23z" fill="#e73635"></path><path d="M1303.54 397.94a21.43 21.43 0 1 0-39.52-16.58z" fill="#d3b714"></path><path d="M52.38 61.11a21.66 21.66 0 1 0 40.9-14.26z" fill="#e73635"></path><path d="M884.61 107.88a6.39 6.39 0 1 0-10.2-7.71z" fill="#037b0b"></path><path d="M931.63 265.85 a29.7 29.7 0 1 0 59.4 0 a29.7 29.7 0 1 0 -59.4 0z" fill="#e73635"></path><path d="M1257.22 25.03 a52.34 52.34 0 1 0 104.68 0 a52.34 52.34 0 1 0 -104.68 0z" stroke="#e73635"></path><path d="M671.77 156.98L684.75 156.98L684.75 169.96L671.77 169.96z" stroke="#d3b714"></path><path d="M74.34 3.26L77.33 3.26L77.33 6.25L74.34 6.25z" fill="#d3b714"></path><path d="M964.54 461.16L974.48 461.16L974.48 471.1L964.54 471.1z" fill="#d3b714"></path><path d="M161.51 36.35 a54.29 54.29 0 1 0 108.58 0 a54.29 54.29 0 1 0 -108.58 0z" stroke="#e73635"></path><path d="M385.14 109.22L429.47 109.22L429.47 115.96L385.14 115.96z" fill="#e73635"></path><path d="M131.37 393.94 a39.92 39.92 0 1 0 79.84 0 a39.92 39.92 0 1 0 -79.84 0z" fill="#d3b714"></path><path d="M839.5 426.33L861.51 426.33L861.51 448.34L839.5 448.34z" fill="#d3b714"></path><path d="M810.52 156.26a12.93 12.93 0 1 0 16.27 20.09z" stroke="#037b0b"></path><path d="M101 254.29a26.79 26.79 0 1 0 37.02 38.74z" fill="#d3b714"></path><path d="M102.46 231.86a44.45 44.45 0 1 0-45.31 76.49z" stroke="#e73635"></path><path d="M842.33 331.94L875.22 331.94L875.22 364.83L842.33 364.83z" stroke="#e73635"></path><path d="M848.19 49.95a28.17 28.17 0 1 0-27.4-49.22z" fill="#e73635"></path><path d="M481.7 207.23a12.41 12.41 0 1 0 18.79 16.22z" fill="#037b0b"></path><path d="M477.6 527.17a47.33 47.33 0 1 0 69.94-63.78z" fill="#d3b714"></path><path d="M953.94 116.18L977.72 116.18L977.72 127.52L953.94 127.52z" fill="#037b0b"></path><path d="M20.7 344.84 a3.61 3.61 0 1 0 7.22 0 a3.61 3.61 0 1 0 -7.22 0z" fill="#037b0b"></path><path d="M316.76 192.32L364.73 192.32L364.73 194.98L316.76 194.98z" stroke="#e73635"></path></g><defs><mask id="SvgjsMask1000"><rect width="1440" height="560" fill="#ffffff"></rect></mask></defs></svg>