<svg xmlns="http://www.w3.org/2000/svg" version="1.1" xmlns:xlink="http://www.w3.org/1999/xlink" xmlns:svgjs="http://svgjs.com/svgjs" width="1481" height="657" preserveAspectRatio="none" viewBox="0 0 1481 657"><g mask="url(&quot;#SvgjsMask1298&quot;)" fill="none"><rect width="1481" height="657" x="0" y="0" fill="#0e2a47"></rect><circle r="5.925" cx="905.155" cy="209.955" filter="url(#SvgjsFilter1299)" fill="rgba(189, 193, 196, 0.58)"></circle><circle r="9.165" cx="540.0649999999999" cy="504.45500000000004" filter="url(#SvgjsFilter1299)" fill="rgba(189, 193, 196, 0.58)"></circle><circle r="7.6" cx="1481.1999999999998" cy="380.74" filter="url(#SvgjsFilter1299)" fill="rgba(189, 193, 196, 0.58)"></circle><circle r="10.32" cx="275.45" cy="602.0600000000001" filter="url(#SvgjsFilter1299)" fill="rgba(189, 193, 196, 0.58)"></circle><circle r="9.54" cx="182.06" cy="179.57999999999998" filter="url(#SvgjsFilter1299)" fill="rgba(189, 193, 196, 0.58)"></circle><circle r="10.18" cx="763.2399999999999" cy="298.72" filter="url(#SvgjsFilter1299)" fill="rgba(189, 193, 196, 0.58)"></circle><circle r="10.345" cx="1412.215" cy="498.805" filter="url(#SvgjsFilter1299)" fill="rgba(189, 193, 196, 0.58)"></circle><circle r="9.525" cx="1056.4550000000002" cy="510.72499999999997" filter="url(#SvgjsFilter1299)" fill="rgba(189, 193, 196, 0.58)"></circle><circle r="8.71" cx="1255.31" cy="306.34999999999997" filter="url(#SvgjsFilter1299)" fill="rgba(189, 193, 196, 0.58)"></circle><circle r="6.795" cx="1105.145" cy="96.035" filter="url(#SvgjsFilter1299)" fill="rgba(189, 193, 196, 0.58)"></circle><circle r="8.285" cx="1484.805" cy="61.315" filter="url(#SvgjsFilter1299)" fill="rgba(189, 193, 196, 0.58)"></circle><circle r="8.71" cx="351.62" cy="534.12" filter="url(#SvgjsFilter1299)" fill="rgba(189, 193, 196, 0.58)"></circle><circle r="10.665" cx="689.355" cy="574.895" filter="url(#SvgjsFilter1299)" fill="rgba(189, 193, 196, 0.58)"></circle><circle r="5.705" cx="100.105" cy="476.59499999999997" filter="url(#SvgjsFilter1299)" fill="rgba(189, 193, 196, 0.58)"></circle><circle r="5.685" cx="856.515" cy="62.295" filter="url(#SvgjsFilter1299)" fill="rgba(189, 193, 196, 0.58)"></circle><circle r="9.895" cx="1432.525" cy="493.85499999999996" filter="url(#SvgjsFilter1299)" fill="rgba(189, 193, 196, 0.58)"></circle><circle r="8.93" cx="361.52" cy="523.16" filter="url(#SvgjsFilter1299)" fill="rgba(189, 193, 196, 0.58)"></circle><circle r="9.25" cx="686.75" cy="21.61" filter="url(#SvgjsFilter1299)" fill="rgba(189, 193, 196, 0.58)"></circle><circle r="7.295" cx="1401.4350000000002" cy="371.745" filter="url(#SvgjsFilter1299)" fill="rgba(189, 193, 196, 0.58)"></circle><circle r="9.12" cx="1209.36" cy="110.52000000000001" filter="url(#SvgjsFilter1299)" fill="rgba(189, 193, 196, 0.58)"></circle><path d="M507.5 544.4L558.9 526.6 572.6 532.8 575.2 566.3 562.6 575.1 509 564.7C508.4 564.8 508.4 564.8 507.7 564.8 506.4 564.9 505.1 565.7 504.6 567.7 504.8 569.7 505.5 570.9 507.6 571.4L554.5 580.4 535 593.8 514.3 590.1C514.3 590.1 513.6 590.1 513.6 590.1 512.3 590.2 511 591 510.5 593 510 594.3 511.4 596.2 513.5 596.7L526.9 599.7 512.4 609.3C511.2 610.1 510.7 612.1 511.5 614S514.9 615.8 516.8 614.9L530.6 605.3 528.3 618.7C527.8 620.7 529.3 622.6 531.3 623.1 532.6 623 534.5 622.2 535.1 620.2L538.8 599.4 558.9 586 549.9 632.9C549.4 634.9 550.8 636.8 552.2 637.3 554.2 637.2 556.1 636.4 556.6 634.4L566.4 580.8 579.6 571.9 609 586.1 610.2 601.9 575.1 643.5C573.9 644.9 574.1 646.9 575.5 648.1S578.9 649.2 580.1 647.7L610.9 611.1 612.8 635.3 599.5 650.9C598.2 652.3 598.4 654.3 599.9 656.1S603.2 657.2 604.5 655.8L613.5 644.5 614.8 662.2C615 664.2 617.1 665.4 619 665.2 621 665.1 622.2 663.7 622.1 661.7L620.7 644 631.3 653.1C632.8 654.9 634.7 654.8 635.9 652.7 637.1 651.3 637 649.3 635.6 648.1L620 634.8 618.2 610.5 654.2 642.1C655.6 643.3 658.3 643.1 659.5 641.7S660.5 638.3 659.1 637.1L617.5 601.3 616.2 585.6 643.9 567 657.6 573.8 675.4 625.3C676.2 627.2 678.2 627.7 680.2 627.6 682.1 626.7 682.6 624.7 682.5 622.8L666.5 577.8 687.7 588 694.5 608C695.3 609.9 697.4 610.4 699.3 610.2 700.6 609.5 701.8 607.4 701 605.5L696.7 592.6 712.4 600C713.8 600.6 715.7 599.8 716.9 598.3 717.4 596.3 716.6 594.4 715.2 593.8L699.5 586.5 713 581.5C714.2 580.7 715.4 578.6 714.6 577.4 714.5 575.4 713.1 574.9 711.2 575 711.2 575 710.5 575.1 710.5 575.1L690.6 581.9 669.3 571.6 714.3 555.6C716.2 554.8 717.4 553.4 716.6 551.5 715.8 549.6 714.5 549 713.1 549.1 712.5 549.2 712.5 549.2 712.5 549.2L660.4 567.7 646.7 560.8 644.1 527.3 656.7 519.1 710.9 528.8C712.3 529.4 714.2 527.9 714.7 526.6 715.2 524.5 713.8 522.7 711.7 522.2L664.9 513.2 684.3 499.8 705 503.5C707.1 504 709 503.2 708.8 501.3 709.3 499.2 707.9 497.4 706.5 496.8L692.5 494.6 706.9 484.9C708.1 483.5 708.6 481.5 707.8 479.5 707.1 478.9 705.8 478.4 704.4 478.5 703.8 478.5 703.8 478.5 703.2 479.2L688.7 488.9 691 474.9C691.5 472.9 690.1 471.7 688.7 471.1 688 471.2 688 471.2 687.4 471.2 686.1 471.3 684.8 472.1 684.3 473.4L680.6 494.2 661.1 507.5 670.1 460.6C669.9 458.7 669.1 456.8 667.2 456.9 666.4 456.3 666.4 456.3 665.8 456.4 664.5 456.5 663.3 457.9 662.7 459.2L653 513.4 640.4 521.7 610.3 507.5 609.1 492.4 644.9 450.7C646.1 449.3 645.9 446.7 644.5 445.4S640.5 444.4 639.2 445.8L608.4 482.5 606.6 458.9 619.9 442.7C621.1 441.3 620.9 439.3 619.5 438.1 618.1 436.9 616.1 437 614.9 438.5L605.8 449.1 604.5 431.3C604.4 430 602.9 428.2 600.9 428.3 599 428.5 597.1 430.6 597.2 431.9L598.6 449.6 588 440.5C587.3 439.9 586.6 439.3 585.9 439.4 584.6 439.5 584 440.2 583.4 440.9 582.2 442.3 582.3 444.2 583.8 445.5L599.4 459.5 601.2 483.1 565.1 451.5C564.4 450.9 563.7 451 562.4 451.1 561.7 451.1 561.1 451.2 560.5 451.9 559.3 453.3 559.5 455.9 560.9 457.1L601.9 492.9 603.1 508 576.1 526.6 561.8 520.4 543.9 468.3C543.2 467 541.7 465.8 540.4 465.9 539.8 466 539.8 466 539.8 466.6 537.9 466.8 536.7 468.9 537.5 470.8L553.5 515.8 531.6 505.6 524.8 485.6C524 484.4 522.7 483.8 521.3 483.9 521.3 483.9 520.7 483.9 520.7 483.9 518.7 484.1 517.6 486.2 518.4 488.1L523.4 501.6 507.6 494.2C506.9 493.6 506.2 493.6 505.6 493.7 504.3 493.8 503 494.5 503.1 495.2 501.9 497.3 502.7 499.2 504.1 500.4L519.9 507.8 507 512.1C505.1 512.9 503.9 514.9 504.7 516.9 505.5 518.1 507.5 519.3 508.8 518.5L528.7 511.7 550 522 505 538C503.1 538.8 502.6 540.8 502.7 542.8 503.5 544 505.6 545.2 507.5 544.4ZM582.1 561.8L580.1 536.2 579.8 532.2 583 530 603.7 515.9 607.5 513.6 610.9 515.3 633.5 526.2 636.9 527.9 637.2 531.8 639.2 557.4 639.5 561.3 636.4 563.6 615.6 577.7 612.5 579.9 608.4 578.2 585.8 567.4 582.4 565.7 582.1 561.8Z" fill="rgba(189, 193, 196, 0.58)"></path><path d="M1292.2 103.7L1282.3 121.8 1274.6 110.2C1273.9 108.9 1271.9 108.3 1270 109.1 1268.7 110.4 1268.1 112.4 1268.8 113.7L1278.6 129.2 1269.3 146 1249.8 114.4C1248.4 112.4 1246.4 111.8 1245.1 113.2 1243.2 113.9 1242.6 115.9 1243.9 117.8L1265.5 152.7 1257.5 168.1 1217.4 169.5 1209 156.6 1230.1 118.3C1230.1 117.7 1230.1 117 1230.1 116.3 1230 115.7 1229.3 114.4 1228.7 113.8 1226.6 112.5 1224.7 113.2 1224.1 115.2L1204.9 150.1 1195.1 134 1204.4 115.9C1205 115.9 1205 115.2 1205 114.6 1204.9 113.2 1204.2 111.9 1202.9 111.3 1201.6 110.7 1199.6 111.4 1198.3 112.8L1190.9 127.5 1178.4 107.6C1177.7 106.3 1175.7 105.7 1173.7 106.4 1172.5 107.8 1171.9 109.8 1172.6 111L1184.4 129.7 1170.6 130.2C1168.6 130.3 1167.4 132.3 1167.4 133.6 1167.5 135.6 1168.9 137.5 1170.8 137.4L1188.6 136.8 1198.4 153 1161.5 154.2C1159.6 154.3 1158.3 155.7 1158.4 157.6 1158.4 159.6 1159.8 160.9 1161.8 160.8L1202.5 159.4 1211.6 172.9 1192.4 208.5 1177.2 209 1154.9 173.6C1154.2 171.6 1151.6 171 1150.3 172.4 1148.3 173.1 1148.4 175.1 1149.1 177L1169.3 209.3 1150.3 209.9 1140.5 193.8C1139.8 192.5 1137.1 191.9 1135.8 192.6S1134 196 1134.7 197.9L1142.4 210.2 1119.3 211C1117.4 211 1116.1 213.1 1116.2 215 1116.2 216.4 1117.6 218.3 1119.6 218.2L1142.6 217.4 1135.8 230.8C1135.2 232.2 1135.3 234.1 1137.3 235.4 1138.6 236 1141.2 235.3 1141.8 233.9L1150.5 217.2 1169.6 216.5 1151.6 250.1C1151 252.1 1151.1 254 1153.1 255.3 1154.4 255.9 1157.1 255.1 1157.7 253.8L1177.5 216.3 1192.6 215.7 1214.2 249.9 1206.1 264 1165.3 265.4C1163.3 265.5 1162.1 266.8 1162.1 268.8 1162.2 270.8 1163.6 272.7 1165.5 272.6L1202.4 271.4 1193.7 288.1 1176 288.8C1174 288.8 1172.7 290.2 1172.8 292.2 1172.9 294.1 1174.2 295.4 1176.2 295.3L1190 294.9 1179.5 314.3C1178.9 315.7 1179.6 318.3 1180.9 318.9 1182.9 319.5 1184.9 319.4 1185.5 317.4L1196.7 297.3 1205 310.8C1206.4 312.1 1208.4 312.7 1209.7 312 1211 311.3 1211.6 309.9 1211.5 308.6 1211.5 308.6 1211.5 308 1210.8 307.3L1200.4 289.9 1209 273.1 1230.6 306.7C1231.3 308.6 1233.3 309.2 1235.2 307.8 1235.9 307.1 1236.5 306.5 1236.5 305.1 1236.4 304.5 1236.4 303.8 1236.4 303.2L1212.8 266.4 1220.2 253 1260.3 251.6 1269.4 266.5 1250.2 302.7C1249 304.7 1249.7 306.7 1251.7 307.3 1253 308.5 1255 307.8 1256.2 305.8L1273.6 272.9 1284 289 1275.3 305.1C1274.7 306.5 1275.4 308.4 1276.8 309.7 1278.8 310.3 1280.8 310.2 1281.3 308.2L1288.2 296.1 1299.3 313.6C1300 315.5 1302 315.4 1304 314.7 1304.6 314 1305.2 312.7 1305.2 311.4 1305.2 311.4 1305.1 310.7 1305.1 310.1L1293.3 291.4 1309.7 290.8C1311.1 290.8 1313 289.4 1312.9 287.4 1312.8 285.4 1310.8 284.2 1309.5 284.2L1289.1 284.9 1278.7 268.8 1318.8 267.4C1320.8 267.4 1322 265.4 1322 263.4S1320.6 260.1 1318.6 260.2L1274.5 261.7 1266.1 248.2 1285.4 212.6 1302.5 212 1324.8 248.1C1326.1 249.4 1328.1 250 1330.1 249.3 1330.7 248.6 1331.3 247.3 1331.3 246 1331.2 245.3 1331.2 244.6 1330.5 244L1310.4 211.8 1329.4 211.1 1339.9 227.2C1340.6 228.5 1342.6 229.1 1344.5 228.4 1345.8 227 1346.4 225 1345.7 223.7L1337.3 210.8 1358.4 210.1C1359.7 210.1 1361.6 208 1361.6 206.7 1361.5 204.8 1359.4 202.8 1358.1 202.9L1337.1 203.6 1344.5 190.8C1344.5 190.2 1344.5 189.5 1344.5 188.9 1344.4 187.5 1343.7 186.3 1343.1 185.6 1341.1 185 1339.1 185.8 1337.8 187.1L1329.2 203.9 1310.1 204.5 1328.1 171C1329.3 169 1328.6 167 1327.3 166.4 1325.2 165.1 1323.3 165.9 1322 167.2L1302.2 204.8 1285.1 205.4 1263.5 171.2 1271 157.1 1315 155.6C1317 155.5 1318.3 154.2 1318.2 152.2 1318.1 150.2 1316.8 149 1314.8 149L1274.7 150.4 1284 133.6 1304.4 132.9C1305.7 132.9 1307.6 130.8 1307.5 128.9 1307.5 126.9 1305.5 125.6 1304.1 125.7L1287.7 126.2 1298.2 106.8C1298.2 106.1 1298.2 106.1 1298.2 105.5 1298.1 104.2 1297.4 102.9 1296.8 102.2 1294.8 101.6 1292.8 102.4 1292.2 103.7ZM1277.2 205.6L1279.3 209.5 1277.5 212.9 1262 241.7 1260.1 245.1 1256.2 245.2 1223.9 246.3 1220 246.4 1217.9 243.2 1200.5 215.5 1198.4 212.3 1200.2 208.2 1215.8 180.1 1217.6 176 1221.5 175.9 1253.8 174.8 1257.7 174.7 1259.8 178.6 1277.2 205.6Z" fill="rgba(189, 193, 196, 0.58)"></path><path d="M1110.3 569.5L1095.4 598.7 1083.9 602.2 1088.9 592.3C1089.8 591.4 1089.1 590.3 1088.2 589.5 1087.3 589.2 1085.9 589.6 1085.7 590.5L1078.4 603.9 1067.2 607.6 1069.9 596.1 1082.9 588C1082.9 588 1083.2 587.7 1083.2 587.7 1083.7 587 1083.7 585.9 1083.4 585 1082.4 584.2 1081.6 583.9 1080.4 584.6L1071.1 590.5 1073.8 579.1 1101.2 561.2C1101.2 561.2 1101.8 561.2 1101.8 561.2 1102.3 560.6 1102.3 559.4 1101.9 558.5 1101.3 557.4 1099.8 557.2 1099 558.1L1075 573.5 1077.8 559.4 1088.6 552.5C1088.6 552.5 1088.6 552.5 1088.8 552.2 1089.4 551.6 1089.6 550.7 1089.3 549.8 1088.4 549 1087.2 548.4 1086.1 549.1L1079 553.8 1081.1 543.5C1081.7 542.3 1080.8 541.5 1079.9 541.2 1078.7 540.7 1077.6 541.3 1077.3 542.8L1074.9 552.8 1070.8 545.7C1069.9 544.9 1068.7 544.4 1067.8 545.3 1066.7 545.9 1066.4 546.8 1067.1 547.9L1074 558.7 1070.8 572.5 1055.2 548.2C1054.8 547.3 1053.4 547.1 1052.2 547.7 1051.7 548.3 1051.1 549.5 1051.8 550.7L1069.6 578.1 1067 589.6 1061 580.2C1060.4 579.1 1059.2 579.2 1058.1 579.8 1057.2 580.1 1057 581.6 1057.3 582.4L1065.8 595.2 1063.4 606.9 1054.6 598.9 1053.9 583.8C1053.8 582.6 1052.9 581.8 1051.8 581.8 1050.9 581.6 1049.8 582.8 1049.8 584L1050.3 595 1041.5 587 1040.3 554.1C1040.2 553 1039.3 552.1 1038.2 552.2 1037 552.2 1036.2 553.1 1036.2 554.3L1037.3 583.1 1026.9 573.7 1026.3 560.9C1026.3 559.7 1025.4 558.9 1024.2 558.9 1023 559 1022.2 559.9 1022.3 561.1L1022.4 569.5 1014.8 562.6C1013.8 561.7 1012.7 561.8 1011.9 562.7 1011 563.6 1011.1 564.8 1012 565.6L1019.6 572.5 1011.5 572.9C1010.3 573 1009.5 573.9 1009.5 575.1S1010.5 577 1011.6 577L1023.8 576.4 1034.5 586.1 1006 587.4C1004.8 587.5 1004 588.4 1004.1 589.6 1004.1 590.7 1005 591.6 1006.2 591.5L1038.7 590 1047.6 598 1036.5 598.6C1035.4 598.6 1034.5 599.5 1034.6 600.7 1034.6 601.8 1035.5 602.7 1036.7 602.6L1051.8 601.9 1060.3 609.7 1049.4 613.1 1035.7 606.2C1034.8 605.9 1033.4 606.3 1033.1 607.2 1032.6 608.3 1032.9 609.2 1033.8 610L1043.7 615.1 1032.8 618.5 1003.6 603.6C1002.4 603 1001.5 603.4 1000.7 604.3 1000.1 605.5 1000.8 606.6 1001.4 607.2L1027.1 620.5 1013.3 624.7 1002.2 619.1C1001.3 618.2 1000.2 618.9 999.4 619.8 999.1 620.7 999.5 622.1 1000.7 622.6L1007.8 626.4 998.1 629.7C996.9 629.8 996.4 631 996.7 632.4 997.1 633.3 998.3 633.8 999.1 633.5L1009.2 630.4 1005.1 637.9C1004.6 639.1 1005.2 640.2 1006.1 640.4 1007 641.3 1007.9 640.9 1008.5 640.3 1008.7 640 1008.7 640 1009 639.7L1014.6 628.7 1028.4 624.6 1015.3 649.9C1014.5 650.8 1015.1 652 1016 652.8 1016.9 653 1017.8 652.7 1018.3 652.1 1018.6 651.8 1018.6 651.8 1018.6 651.8L1034.1 622.5 1045 619.1 1040 629C1039.4 630.2 1039.8 631 1040.7 631.8 1041.6 632.1 1042.7 632 1043.3 631.4 1043.6 631.1 1043.6 631.1 1043.8 630.8L1050.8 617.1 1061.7 613.7 1059.3 624.9 1046.6 633.3C1045.4 634 1045.2 635.4 1045.5 636.3 1046.5 637.1 1047.6 637.6 1048.5 636.7L1057.8 630.8 1055.7 642.2 1027.7 660.1C1026.9 660.4 1026.6 661.9 1027 662.8 1027.9 663.6 1029.1 664.1 1030.2 663.5L1054.2 648.1 1051.1 661.9 1040.6 668.5C1039.5 669.2 1039.3 670.6 1040.2 671.5 1040.5 672.3 1041.7 672.9 1042.8 672.2L1049.9 667.5 1047.8 677.8C1047.5 678.7 1048.1 679.8 1049.3 680.4 1049.9 680.3 1050.8 680 1051.3 679.4 1051.3 679.4 1051.6 679.1 1051.9 678.8L1054 668.5 1058.7 675.6C1059.1 676.4 1060.5 676.7 1061.4 676.3 1061.7 676 1061.7 676 1061.7 676 1062.5 675.1 1062.4 673.9 1061.8 673.4L1055.2 662.9 1058.1 648.8 1073.8 673.1C1074.7 674 1075.5 674.2 1076.7 673.6 1076.7 673.6 1077 673.3 1077 673.3 1077.5 672.7 1077.8 671.8 1077.1 670.6L1059.5 642.9 1061.9 631.7 1067.9 641.1C1068.8 641.9 1070 642.4 1070.8 641.5 1071.1 641.8 1071.4 641.5 1071.4 641.5 1072 640.9 1071.9 639.7 1071.6 638.9L1063.1 626.2 1065.8 614.7 1074.3 622.4 1075 637.5C1075.1 638.7 1076.3 639.8 1077.4 639.8 1078.3 639.4 1079.1 638.5 1079.4 637.6L1078.6 626.3 1087.4 634.3 1088.9 666.9C1089 668.1 1089.9 668.9 1091 668.8 1092.2 668.8 1093 667.9 1093 666.7L1091.6 638.2 1102.3 647.9 1102.9 660.1C1102.9 661.3 1103.8 662.1 1105 662.1S1107 661.1 1106.9 659.9L1106.5 651.8 1114.1 658.7C1115.1 659.6 1116.2 659.5 1117.1 658.6 1117.9 657.7 1117.8 656.5 1116.9 655.7L1109.3 648.8 1117.7 648.1C1118.3 648.1 1118.9 648 1119.2 647.7 1119.4 647.4 1119.7 646.5 1119.7 646 1119.6 644.8 1118.7 644 1117.5 644L1105.1 644.9 1094.4 635.2 1123.2 633.6C1123.8 633.5 1124.3 633.5 1124.6 633.2 1124.9 632.9 1125.1 632 1125.1 631.4 1125.1 630.3 1124.1 629.4 1123 629.5L1090.2 631.3 1081.3 623.3 1092.7 623C1093.3 623 1093.8 622.4 1094.1 622.1 1094.4 621.8 1094.7 621.5 1094.6 620.9 1094.6 619.7 1093.4 618.6 1092.5 619L1077.1 619.4 1068.6 611.6 1079.8 607.9 1093.2 615.1C1094.1 615.4 1095.2 615.3 1095.8 614.7 1096.1 614.4 1096.1 614.4 1095.8 614.2 1096.6 613.2 1096.2 611.8 1095.1 611.3L1085.2 606.2 1096.4 602.5 1125.7 618C1126.5 618.3 1127.4 617.9 1128 617.3 1128.2 617 1128.2 617 1128.2 617 1128.8 615.8 1128.7 614.7 1127.5 614.1L1101.9 600.8 1115.6 596.6 1126.7 602.2C1127.9 602.8 1128.7 602.4 1129.3 601.8 1129.3 601.8 1129.6 601.5 1129.6 601.5 1130.1 600.3 1129.4 599.2 1128.8 598.6L1121.1 594.9 1131.1 591.8C1131.4 591.5 1131.7 591.2 1132 590.9 1132.3 590.6 1132.5 589.7 1132.5 589.2 1131.8 588 1130.9 587.2 1129.8 587.8L1119.7 590.9 1123.8 583.4C1124.3 582.3 1123.7 581.1 1123 580.6 1121.9 580 1120.7 580.7 1119.9 581.6L1114.3 592.6 1100.8 597 1113.9 571.7C1114.4 570.5 1114.1 569 1113.2 568.8 1112 568.3 1110.8 568.3 1110.3 569.5Z" fill="rgba(189, 193, 196, 0.58)"></path><path d="M1479.5 472.2L1438.4 507.9 1423.4 507.2 1408.5 477.1 1416.8 464.2 1470.5 453.9C1471.1 453.6 1471.1 453.6 1471.7 453.3 1472.8 452.7 1473.7 451.6 1473.4 449.5 1472.6 447.7 1471.4 446.9 1469.3 447.1L1422.5 456.3 1435.5 436.6 1456.2 432.3C1456.2 432.3 1456.8 432 1456.8 432 1457.9 431.5 1458.8 430.3 1458.6 428.2 1458.6 426.8 1456.5 425.6 1454.4 425.9L1440.9 428.1 1450.7 413.8C1451.6 412.6 1451.3 410.5 1449.8 409S1446 408.7 1444.5 410.2L1435.3 424.3 1432.5 411C1432.2 408.9 1430.1 407.8 1428.1 408 1426.9 408.6 1425.4 410.1 1425.7 412.1L1430 432.8 1416.3 452.7 1407.2 405.9C1406.9 403.8 1404.8 402.6 1403.4 402.6 1401.6 403.5 1400.1 404.9 1400.4 407L1411.3 460.3 1402.4 473.5 1369.7 471.3 1362.7 457.1 1379.8 405.4C1380.4 403.6 1379.5 401.9 1377.8 401.3S1374.2 401.5 1373.6 403.3L1358.6 448.8 1347.9 427 1354.5 407.6C1355.1 405.8 1354.2 404.1 1352.1 402.9S1348.6 403.2 1348 404.9L1343.8 418.7 1335.9 402.8C1335.1 401 1332.7 400.7 1331 401.6 1329.2 402.5 1328.6 404.2 1329.5 406L1337.3 421.9 1324.1 417.4C1322 416.2 1320.3 417.1 1320 419.5 1319.4 421.2 1320.2 423 1322 423.6L1341.4 430.2 1352.1 452 1306.9 436.2C1305.1 435.6 1302.8 436.7 1302.2 438.5S1302.5 442 1304.2 442.6L1356.2 460.3 1363.2 474.5 1344.5 502 1329.2 500.8 1293.5 459.6C1292.1 458.2 1290 458.5 1288.2 459.3 1286.7 460.8 1287 462.8 1287.9 464.6L1319.5 500.4 1295.9 498.8 1282.2 482.8C1280.7 481.4 1278.7 481.6 1276.9 482.5 1276 483.7 1275.7 486 1277.2 487.5L1285.9 497.9 1268.6 496.9C1267.1 496.9 1265.6 498.3 1265 500.1 1265.3 502.2 1266.8 503.6 1268.2 503.7L1285.6 504.6 1274.9 514.3C1274.1 515.5 1273.8 517.8 1274.9 518.7 1275.8 520.5 1277.3 520.5 1279 519.6 1279 519.6 1279.6 519.3 1279.6 519.3L1295.6 505.6 1319.1 507.2 1283.3 538.8C1281.9 540.2 1281.3 542 1282.7 543.5 1284.2 545 1285.7 545 1286.8 544.4 1287.4 544.1 1287.4 544.1 1287.4 544.1L1328.9 507.5 1344.2 508.8 1359 538.9 1350.4 551.2 1296.5 562.4C1295 562.4 1293.8 564.4 1293.8 565.9 1294.1 568 1296.1 569.2 1298.2 568.9L1345 559.7 1332 579.4 1311.3 583.7C1309.3 584 1307.8 585.4 1308.7 587.2 1309 589.3 1311 590.5 1312.5 590.5L1326.3 587.3 1316.5 601.7C1315.9 603.4 1316.2 605.5 1317.7 607 1318.6 607.3 1320 607.3 1321.2 606.7 1321.8 606.4 1321.8 606.4 1322.1 605.5L1331.9 591.2 1335.1 605C1335.3 607.1 1337.1 607.7 1338.6 607.7 1339.2 607.4 1339.2 607.4 1339.8 607.1 1340.9 606.5 1341.8 605.4 1341.8 603.9L1337.5 583.2 1350.6 563.6 1359.8 610.5C1360.6 612.2 1362.1 613.7 1363.9 612.8 1364.7 613.1 1364.7 613.1 1365.3 612.8 1366.5 612.3 1367.1 610.5 1367.1 609L1356 555.1 1364.6 542.8 1397.8 544.7 1404.5 558.3 1386.8 610.3C1386.2 612.1 1387.4 614.4 1389.2 615S1393.3 614.5 1393.9 612.7L1408.9 567.2 1419.3 588.4 1413 608.4C1412.4 610.2 1413.3 612 1415.1 612.5 1416.8 613.1 1418.6 612.3 1419.2 610.5L1423.7 597.3 1431.6 613.2C1432.1 614.4 1434.2 615.6 1436 614.7 1437.7 613.9 1438.6 611.2 1438.1 610L1430.2 594.1 1443.4 598.6C1444.3 598.9 1445.2 599.2 1445.8 598.9 1447 598.3 1447.3 597.4 1447.6 596.5 1448.2 594.8 1447.3 593 1445.5 592.4L1425.8 585.2 1415.4 564 1460.6 579.8C1461.5 580.1 1462.1 579.9 1463.3 579.3 1463.9 579 1464.4 578.7 1464.7 577.8 1465.3 576 1464.2 573.7 1462.4 573.1L1411 555.1 1404.3 541.5 1422.4 514.3 1438 514.7 1474 556.4C1475.2 557.3 1476.9 557.9 1478.1 557.3 1478.7 557 1478.7 557 1478.4 556.4 1480.2 555.5 1480.5 553.2 1479 551.7L1447.4 515.9 1471.6 517.2 1485.3 533.2C1486.5 534.1 1488 534.1 1489.1 533.5 1489.1 533.5 1489.7 533.2 1489.7 533.2 1491.5 532.3 1491.8 530 1490.3 528.5L1480.7 517.9 1498.1 518.8C1498.9 519.1 1499.5 518.8 1500.1 518.6 1501.3 518 1502.2 516.8 1501.9 516.2 1502.2 513.9 1500.7 512.4 1499 511.8L1481.6 510.8 1492 502C1493.5 500.6 1493.8 498.2 1492.3 496.7 1491.1 495.8 1488.8 495.5 1487.9 496.7L1471.9 510.4 1448.4 508.8 1484.2 477.2C1485.7 475.8 1485.4 473.7 1484.5 472 1483.3 471.1 1481 470.8 1479.5 472.2ZM1403.8 483.8L1415.1 506.9 1416.9 510.4 1414.8 513.6 1400.8 534.5 1398.2 538 1394.3 537.7 1369.3 536 1365.5 535.7 1363.7 532.2 1352.4 509.2 1350.7 505.6 1352.7 502.4 1366.7 481.6 1368.8 478.3 1373.2 478.4 1398.2 480 1402 480.3 1403.8 483.8Z" fill="rgba(189, 193, 196, 0.58)"></path><path d="M111.1 559.9L162.6 549.3 178.4 560.2 161 563.7C159 563.6 158.3 565.5 158.1 567.5 158.7 568.8 160.6 570.3 162 569.7L186 565.3 201.8 575.5 184.8 583.7 161.6 575.6C161.6 575.6 160.9 575.6 160.9 575.6 159.6 575.5 158.2 576.7 157.5 578 157.4 580 157.9 581.3 159.9 582.1L176.7 587.8 159.7 595.9 109.9 579.6C109.9 579.6 109.3 578.9 109.3 578.9 108 578.9 106.6 580.1 105.8 581.4 105.1 583.3 106.2 585.3 108.2 585.5L151.5 600.1 131 610.6 111.7 604.1C111.7 604.1 111.7 604.1 111 604.1 109.7 604 108.3 604.6 107.6 605.9 107.5 607.8 108 609.9 109.9 610.6L122.9 614.7 107.9 622.4C105.9 622.9 105.7 624.9 106.3 626.2 106.8 628.2 108.8 629 110.8 627.8L125.8 620.9 121.1 633.1C120.9 635.1 121.5 637.1 123.4 637.2 125.4 638 126.7 637.4 127.5 635.5L134 616.1 154.4 606.2 139.8 650.1C139 651.4 140.2 653.4 142.2 654.2 143.5 654.3 145.5 653.8 146.3 651.8L162.6 602.1 179.6 593.9 173.9 610.7C173.1 612.6 174.4 614 176.3 614.8 177.6 615.5 179.6 614.3 180.3 613.1L187.7 589.8 204.8 581 203.6 600 185.4 616C184 617.3 183.9 619.2 185.1 620.6 185.7 622 188.4 622.1 189.7 620.9L203 609.2 201.8 628.3 162.1 662.7C160.7 663.9 160.5 665.9 161.8 667.3 163 668.7 165 668.8 166.4 667.6L201.2 637.5 199.8 659.8 184.5 673.3C183.1 674.6 183 676.6 184.2 677.9 185.4 679.3 187.4 679.5 188.8 678.2L199.2 669.7 198.2 686.1C198.1 688.1 199.3 689.4 201.3 689.6 203.2 689.7 204.6 688.5 204.8 686.5L205.8 670.1 214.4 679.8C215.6 681.2 217.6 681.4 219 680.1S220.5 676.9 219.3 675.5L206.4 660.9 207.8 637.9 238 672.1C239.2 673.5 241.2 673.6 242.6 672.4 244 671.1 244.1 669.2 242.9 667.8L208.4 628.7 209.6 609.6 221.3 622.9C222.5 624.3 224.5 624.4 225.9 623.2 227.3 622 227.4 620 226.2 618.6L210.2 600.4 211.3 582 226.5 592.2 231.6 616.3C232.2 617.6 234 619.1 235.4 618.5 237.4 618 238.2 616.7 238.3 614.7L234.8 597.4 249.9 607.5 260.6 659C261.1 661 262.4 661.7 264.3 661.9 266.4 661.3 267.1 659.4 267.2 658.1L258.2 612.7 277.2 625.7 281.2 645.1C281.1 647.1 283 647.9 285 648 286.4 647.4 287.8 645.5 287.3 643.5L284.8 630.8 298.7 639.6C299.9 641 302 640.5 303.4 638.6 304.1 637.3 303.6 635.3 302.3 634.6L288.4 625.1 301.8 622.7C303.8 622.1 304.5 620.2 304 618.9 304.1 616.9 302.8 616.1 301.5 616.1 300.9 616 300.9 616 300.2 616L280.8 620 261.8 607 306.6 597.9C308.6 598 309.4 596.1 309.5 594.1 308.9 592.8 307.6 592 306.3 592 305.7 591.9 305.7 591.9 305.7 591.9L253.6 601.8 238.4 591.7 255.8 588.1C257.8 587.6 258.5 586.3 258.7 584.4 258.1 583 256.8 581.6 255.5 581.5 254.9 581.5 254.9 581.5 254.2 581.4L230.2 586.5 215 576.3 231.3 568.1 254.6 575.5C256.5 576.3 258.6 575.1 259.3 573.8 259.4 571.9 258.9 569.9 256.9 569.7L240.1 564.1 256.5 555.2 306.9 572.2C308.2 572.9 310.2 571.8 311 570.5 311.1 568.5 310.6 566.5 308.6 565.7L265.4 551.1 285.8 541.2 304.5 547.7C306.4 548.4 308.5 547.2 308.6 545.3 309.3 544 308.8 542 306.9 541.2L293.9 537.1 308.9 529.5C310.3 528.9 311.1 527 310.5 525 309.9 524.3 308.6 523.5 307.3 523.4 307.3 523.4 306.7 523.4 306 523.3L291 531 295.1 518.1C295.9 516.8 294.7 514.7 293.4 514 292.7 513.9 292.7 513.9 292.7 513.9 290.8 513.8 289.4 515.1 289.3 516.4L282.8 535.1 262.4 545.7 277 501.7C277.1 499.8 276.6 498.4 274.6 497.6 274.6 497.6 274 497.6 274 497.6 272.7 497.5 271.3 498.1 270.5 500L253.6 549.7 237.2 557.9 242.9 541.2C243 539.2 242.5 537.2 240.5 537 240.6 536.4 239.9 536.3 239.9 536.3 238.6 536.3 237.2 537.5 236.5 538.8L229.1 562 212.1 570.2 213.2 551.8 231.4 535.8C232.8 534.6 232.9 532 231.7 530.6 230.4 529.8 228.4 529.7 227.1 530.3L213.8 542.6 215 523.6 254.1 489.1C255.5 487.9 255.6 485.9 254.4 484.5 253.1 483.1 251.2 483 249.8 484.2L215.6 514.4 217 491.4 231.7 478.5C233.1 477.2 233.2 475.3 231.9 473.9S228.7 472.3 227.4 473.6L217.6 482.2 218.6 465.8C218.7 463.8 217.5 462.4 215.5 462.3 213.6 462.1 212.2 463.4 212 465.4L211 481.8 201.7 472C201.1 471.3 200.5 470.6 199.8 470.5 199.2 470.5 197.8 471.1 197.1 471.7 195.7 472.9 195.6 474.9 196.8 476.3L210.4 491 209 514 178.2 479.7C177.5 479 176.9 478.3 176.3 478.3 175.6 478.2 174.3 478.8 173.6 479.4 172.2 480.7 172 482.6 173.3 484L208.4 523.2 207.2 542.2 195.6 528.3C194.9 527.6 193.6 527.5 193 527.5 192.3 527.4 191.7 527.4 191 528 189.6 529.2 189.4 531.9 190.7 532.6L206.6 551.4 205.5 569.8 189.6 559.6 185.2 535.6C184.6 534.2 183.4 532.8 182.1 532.7 181.4 532.7 181.4 532.7 181.4 533.3 179.4 533.2 178 535.1 178.5 537.1L182 554.5 166.2 544.3 156.3 492.2C155.7 490.8 154.4 490.1 153.1 490 152.5 490 152.5 490 152.5 490 150.4 490.5 149 491.7 149.6 493.7L158.6 539.2 139.6 526.1 135.6 506.7C135 504.7 133.8 504 132.5 503.9 132.5 503.9 131.8 503.8 131.8 503.8 129.8 504.4 129 506.3 128.9 507.6L132 521 118.1 511.6C117.5 511.5 116.8 511.5 116.2 511.4 115.5 511.4 114.1 512 113.4 512.6 112.7 514.5 112.5 516.5 114.5 517.3L128.4 526.7 115 529.2C113 529.7 112.2 531.6 112.2 533 112.7 535 114.6 535.7 116.6 535.9L136 531.8 155 544.2 110.2 553.3C108.2 553.8 106.8 555.7 107.4 557.1 107.9 559.1 109.1 560.5 111.1 559.9Z" fill="rgba(189, 193, 196, 0.58)"></path><path d="M50.7 58.5L77.3 64.5 90.2 85.1 65.9 86 46 67.2C46 67.2 45.8 67.1 45.8 67.1 45.2 66.8 44.3 67 43.7 67.5 42.9 68.2 43 69.4 43.9 69.8L61.3 86.2 49.5 86.6 41.8 79.5C41.8 79.5 41.5 79.3 41.5 79.3 40.9 79 40 79.3 39.4 79.7 38.7 80.4 38.8 81.6 39.6 82.1L44.8 87.1 36.1 87.3C35.4 87.3 34.5 88.3 34.5 89 34.3 90.1 35.5 90.7 36.2 90.7L44.9 90.5 39.9 95.6C39.1 96.4 39.3 97.5 40.1 98 40.9 98.8 42 98.6 42.5 97.8L49.6 90 61.2 89.8 44.9 107.3C44.2 108 44.3 109.1 45.2 109.6 45.9 110.4 47 110.2 47.5 109.4L66.3 89.5 90.6 88.6 79 110.4 52.7 118.5C51.8 118.8 51.4 119.6 51.7 120.5 51.9 121.4 52.8 121.9 53.7 121.6L76.8 114.5 71.3 125 61.5 128C60.6 128.2 60.1 129.1 60.4 130 60.7 130.9 61.5 131.4 62.4 131.1L69.1 129 64.8 137.2C64 137.9 64.6 138.9 65.5 139.4 66.3 139.9 67.2 139.6 67.7 138.7L71.7 131.2 73.8 137.8C74 138.7 74.9 139.2 75.8 138.9S77.1 137.8 76.9 136.9L73.9 127.1 79.4 116.6 86.5 139.8C86.8 140.7 87.7 141.1 88.6 140.9 89.4 140.6 89.9 139.7 89.6 138.8L81.6 112.6 93 91.1 105.9 111.7 100 137.6C99.8 138.6 100.5 139.4 101.4 139.8 102.4 140 103.2 139.3 103.6 138.4L108.9 115.2 115.1 125.2 112.7 135.4C112.5 136.4 113.2 137.2 114.1 137.7 115.1 137.8 115.9 137.1 116.2 136.5L117.7 129.5 122.4 136.8C122.8 137.4 124 138 124.7 137.3 125.5 136.6 125.9 135.7 125.2 135L120.5 127.7 127.6 129.2C128.6 129.3 129.3 128.6 129.6 128 129.7 127.3 129.4 126.4 128.8 126.1 128.8 126.1 128.5 125.9 128.5 125.9L118.3 123.5 112 113.5 135.3 118.7C136.4 118.9 137.1 118.2 137.4 117.6 137.4 116.9 137.2 116 136.6 115.7 136.6 115.7 136.3 115.5 136.3 115.5L109.6 109.6 96.7 88.9 121.1 88.1 140.9 106.8C141.6 107.6 142.8 107.4 143.3 106.6 144 105.9 143.9 104.7 143 104.2L125.6 87.9 137.4 87.4 145.2 94.5C145.9 95.3 147.1 95.2 147.6 94.3 148.3 93.6 148.2 92.4 147.3 91.9L142.1 87 150.8 86.7C151.6 86.8 152.5 85.7 152.5 85 152.5 84.3 152.1 83.7 151.5 83.4 151.2 83.2 150.9 83.1 150.5 83.2L141.8 83.4 146.8 78.2C147.5 77.5 147.4 76.3 146.5 75.9 146.5 75.9 146.2 75.7 146.2 75.7 145.7 75.4 144.8 75.7 144.2 76.1L137.1 83.9 125.3 84.3 141.6 66.9C142.4 66.2 142.2 65 141.4 64.6 141.4 64.6 141.1 64.4 141.1 64.4 140.5 64.1 139.6 64.4 139 64.8L120.3 84.7 95.9 85.5 107.4 64 133.6 56C134.5 55.7 135 54.8 134.7 53.9 134.4 53.1 133.6 52.6 132.7 52.9L109.7 59.7 115.2 49.2 125 46.2C125.9 45.9 126.4 45.1 126.1 44.2S125 42.8 124.1 43.1L117.4 45.1 121.4 37.6C121.9 36.7 121.6 35.8 120.7 35.4 119.9 34.9 119 35.2 118.5 36L114.5 43.6 112.4 36.9C112.3 36.5 112.2 36 111.6 35.7S110.6 35.5 110.1 35.7C109.2 36 108.8 36.8 109 37.7L112 47.5 106.5 58 99.4 34.8C99.3 34.4 99.1 33.9 98.5 33.6 98.3 33.5 97.5 33.5 97.1 33.6 96.2 33.9 95.7 34.7 96 35.6L104 61.9 92.6 83.4 79.7 62.8 85.7 36.1C85.7 35.4 85.4 34.5 84.8 34.2 84.8 34.2 84.5 34 84.5 34 83.5 33.8 82.8 34.6 82.5 35.1L77.2 58.4 70.9 48.4 73.4 38.2C73.4 37.4 73.1 36.5 72.6 36.2 72.6 36.2 72.3 36.1 72.3 36.1 71.3 35.9 70.5 36.6 70.2 37.2L68.7 44.2 64 36.9C63.7 36.7 63.6 36.3 63.3 36.1 62.7 35.8 62 35.8 61.4 36.2 60.6 37 60.2 37.8 60.9 38.6L65.6 45.9 58.5 44.4C57.5 44.3 56.7 45 56.4 45.6 56.3 46.6 57 47.3 57.6 47.6L67.8 50.1 74 60.1 50.8 54.8C49.7 54.7 49 55.4 48.7 56 49.1 57.3 49.6 58.3 50.7 58.5Z" fill="rgba(189, 193, 196, 0.58)"></path><path d="M298.7 220.2L318.6 225.8 309 235.8C307.9 236.8 307.8 238.9 309 240.6 310.6 241.6 312.7 241.7 313.8 240.7L326.6 227.7 345.1 232.9 318.7 259.1C317.2 260.9 317 263 318.7 263.9 319.8 265.7 321.9 265.8 323.5 264L352.5 235 369.3 239.4 379.8 278.1 369.1 289.2 327.1 277.3C326.4 277.5 325.8 277.7 325.1 277.9 324.5 278 323.4 279 322.9 279.8 322.2 282.1 323.3 283.8 325.4 283.9L363.8 294.7 350.3 307.9 330.6 303C330.4 302.4 329.7 302.5 329.1 302.7 327.8 303 326.7 304 326.4 305.5 326.2 306.9 327.3 308.6 328.9 309.6L345 313.4 328.3 330.2C327.2 331.1 327.1 333.2 328.3 335 329.9 335.9 332 336 333.1 335L348.6 319.3 352.2 332.6C352.7 334.5 354.9 335.3 356.2 334.9 358.1 334.4 359.7 332.6 359.2 330.7L354.5 313.6 368 300.4 377.6 336C378.1 337.9 379.8 338.8 381.7 338.3 383.6 337.8 384.5 336.2 384 334.3L373.4 294.9 384.5 283 423.5 293.6 427.4 308.2 397.9 338C396.2 339.1 396.3 341.9 397.9 342.8 399 344.5 400.9 344 402.7 342.9L429.5 315.9 434.4 334.3 420.9 347.5C419.8 348.4 419.9 351.2 420.9 352.3S424.6 353.3 426.3 352.2L436.5 341.9 442.5 364.2C443 366.1 445.3 366.8 447.2 366.3 448.4 366 450 364.2 449.5 362.3L443.5 340 458.1 343.6C459.5 343.9 461.4 343.4 462.2 341.1 462.5 339.7 461.2 337.3 459.7 337L441.4 332.4 436.5 314 473.2 323.8C475.3 324 477.2 323.4 477.9 321.2 478.2 319.7 476.9 317.4 475.5 317.1L434.4 306.3 430.5 291.7 458.8 262.9 474.4 267.6 485 307C485.5 308.9 487.2 309.8 489.1 309.3 491 308.8 492.5 307 492 305.1L482.4 269.5 500.7 274.1 505.3 291.3C505.9 293.2 507.5 294.1 509.4 293.6 511.3 293.1 512.2 291.5 511.7 289.6L508.1 276.2 529.4 282.1C530.9 282.4 533.3 281.1 533.5 279.6 533.7 277.5 533.2 275.6 531.1 275.5L508.9 269.2 520.2 258C521.1 256.4 521.3 254.3 520.3 253.2 519.3 252.1 517.9 251.8 516.6 252.1 516.6 252.1 516 252.3 515.5 253.1L500.9 267.3 482.6 262.7 510.4 234.1C512.1 232.9 512.2 230.8 510.4 229.3 509.6 228.8 508.8 228.3 507.5 228.7 506.9 228.8 506.3 229 505.6 229.2L475.2 260.6 460.5 256.4 450 217.6 462.4 205.4 502 215.8C504.3 216.6 506 215.5 506.1 213.4 507.1 211.8 505.9 210 503.7 209.3L467.7 199.9 481 186.1 498.7 190.8C500.1 191.1 501.9 190 502.8 188.4 502.9 186.3 502.4 184.4 500.3 184.3L487 180.4 501.4 165.6C503.2 164.4 502.7 162.5 501.5 160.8 500.7 160.3 499.3 160 498 160.4 498 160.4 497.3 160.5 496.7 160.7L481.2 176.5 476.9 160.6C476.6 159.3 474.8 157.7 472.9 158.3 471 158.8 470.2 161 470.6 162.3L475.9 182 462.5 195.8 452.1 157C451.6 155.1 449.3 154.4 447.4 154.9S444.6 157 445.1 158.9L456.6 201.5 445.3 212.7 406.3 202.1 401.8 185.6 432 155.7C432.9 154 433 152 431.9 150.2 431 149.8 429.6 149.5 428.3 149.8 427.7 150 427.1 150.2 426.6 151L399.8 178 394.8 159.5 408.1 145.7C409.2 144.7 409.4 142.7 408.2 140.9 406.6 140 404.5 139.9 403.4 140.9L392.8 151.9 387.3 131.6C386.9 130.3 384.5 128.9 383.2 129.3 381.3 129.8 379.9 132.2 380.3 133.5L385.8 153.8 371.6 149.4C371 149.6 370.4 149.8 369.7 149.9 368.5 150.3 367.4 151.3 366.9 152.1 366.8 154.1 367.9 155.9 369.5 156.8L387.8 161.4 392.8 179.9 356.1 170C353.8 169.2 352.1 170.4 351.8 171.8 351 174.1 352.2 175.8 353.8 176.7L394.9 187.5 399.3 204 370.9 232.8 355.5 228.8 344.1 186.2C343.5 184.3 341.9 183.3 340 183.9 338.1 184.4 337.2 186 337.7 187.9L348.2 226.7 329.7 221.4 324.4 201.7C324 200.4 321.6 199 319.7 199.6 317.8 200.1 317 202.3 317.4 203.6L321.7 219.5 300.3 213.6C299.7 213.8 299.7 213.8 299.1 214 297.8 214.3 296.7 215.3 296.2 216.1 296.1 218.2 297.3 219.9 298.7 220.2ZM401.4 211.6L404.7 208.7 408.4 209.7 440 218.3 443.7 219.3 444.7 223.1 453.1 254.3 454.1 258.1 451.4 260.8 428.4 284.1 425.7 286.9 421.4 286 390.4 277.3 386.1 276.4 385.1 272.6 376.7 241.5 375.7 237.6 379 234.7 401.4 211.6Z" fill="rgba(189, 193, 196, 0.58)"></path><path d="M823.2 140.2L870.8 166.6 875.4 181 852.2 205.2 837.2 201.8 809.1 155C808.6 154.5 808.6 154.5 808.2 154.1 807.2 153.2 805.8 152.7 804 153.7 802.6 155.1 802.2 156.5 803.1 158.4L827.8 199.3 804.9 193.7 793.8 175.8C793.8 175.8 793.3 175.4 793.3 175.4 792.3 174.5 790.9 174 789.1 175 787.7 175.5 787.3 177.8 788.3 179.7L795.1 191.6 778.2 187.4C776.8 186.9 775 187.9 774.1 189.8S775.1 193.5 777 194.4L793.3 198.2 781.9 205.4C780 206.4 779.6 208.7 780.6 210.6 781.5 211.5 783.4 212.4 785.3 211.4L803.2 200.3 826.6 206.3 785.7 230.9C783.9 231.9 783.5 234.3 783.9 235.6 785.4 237 787.3 237.9 789.1 236.9L835.5 208.4 850.9 212.2 860 243.7 849.1 255.1 794.7 256.8C792.8 256.9 791.4 258.3 791.5 260.1S793 263.4 794.8 263.3L842.7 261.8 825.9 279.4 805.4 279.8C803.6 279.9 802.2 281.3 801.8 283.7S803.3 286.9 805.1 286.8L819.5 286 807.3 298.9C805.9 300.3 806.4 302.6 807.8 304 809.3 305.4 811.1 305.3 812.5 303.9L824.8 291 825.1 305C824.7 307.3 826.1 308.7 828.4 308.2 830.3 308.1 831.7 306.7 831.6 304.9L831.1 284.4 848 266.8 848.6 314.7C848.6 316.6 850.5 318.4 852.4 318.4S855.6 316.9 855.6 315L854.3 260.1 865.3 248.7 897.6 256.8 901.6 271.6 875.2 319.2C874.3 321.1 875.3 323 876.7 324.3 878.6 325.2 880.5 324.2 881.8 322.8L904.6 280.9 911.2 303.5 900.9 321.9C900 323.8 901 325.6 902.4 327 903.8 327.4 906.1 326.9 907 325L913.7 313.2 918.8 329.9C919.3 331.3 921.2 332.2 923 332.1 924.9 331.1 925.7 329.3 925.2 327.9L920.2 311.2 932.9 317.9C934.3 318.4 936.7 317.8 937.1 316.4 938.5 315 938 313.6 936.5 312.3 936.5 312.3 936.1 311.8 936.1 311.8L917.7 301.5 911.1 278.8 953 301.6C954.9 302.5 956.8 302.5 957.7 300.6 958.6 298.7 958.1 297.3 957.1 296.4 956.6 296 956.6 296 956.6 296L908.1 269.6 904 254.8 927.2 230.5 941.7 234.4 970.7 281.2C971.2 282.6 973.6 283 975 282.5 976.8 281.5 977.2 279.2 976.2 277.4L951.6 236.5 974.5 242 985.6 259.9C986.6 261.8 988.5 262.7 989.8 261.2 991.7 260.3 992.1 257.9 991.6 256.5L983.9 244.6 1000.7 248.9C1002.6 248.8 1004.4 247.9 1005.3 246 1005.3 245 1004.8 243.7 1003.9 242.8 1003.4 242.3 1003.4 242.3 1002.4 242.3L985.6 238 997.5 230.3C999.4 229.4 999.3 227.5 998.8 226.1 998.3 225.7 998.3 225.7 997.9 225.2 996.9 224.3 995.5 223.9 994.1 224.4L976.2 235.5 953.3 229.9 994.2 205.3C995.5 203.8 996.4 202 995 200.6 995 199.7 995 199.7 994.5 199.2 993.5 198.3 991.7 198.3 990.3 198.8L943.5 227.8 928.9 224 919.4 192.1 929.8 181.1 984.7 179.9C986.6 179.8 988.4 177.9 988.4 176.1S986.4 172.4 984.6 172.4L936.6 174 953 156.8 973.9 155.9C975.8 155.9 977.2 154.4 977.1 152.6 977.1 150.7 975.7 149.4 973.8 149.4L959.8 149.7 972.1 136.9C973 135.9 973.4 133.6 972 132.2 970.6 130.8 967.8 130.9 966.9 131.9L954.6 144.7 954.3 130.7C954.3 129.8 954.2 128.9 953.8 128.4 952.8 127.5 951.9 127.5 951 127.6 949.1 127.6 947.7 129 947.8 130.9L947.8 151.8 931.4 169 930.8 121C930.8 120.1 930.3 119.7 929.3 118.7 928.9 118.3 928.4 117.8 927.5 117.9 925.6 117.9 923.8 119.8 923.8 121.7L924.6 176.1 914.1 187.1 882.3 179.4 877.3 164.6 904.2 116.5C904.6 115.1 904.5 113.3 903.6 112.3 903.1 111.9 903.1 111.9 902.7 112.4 901.2 111 898.9 111.5 898 113.4L875.2 155.4 868.2 132.2 878.5 113.8C878.9 112.4 878.4 111.1 877.5 110.1 877.5 110.1 877 109.7 877 109.7 875.6 108.3 873.3 108.8 872.4 110.7L865.7 123.4 860.6 106.8C860.6 105.9 860.1 105.4 859.7 105 858.7 104.1 857.3 103.6 856.8 104.1 854.5 104.6 853.6 106.5 853.7 108.4L858.7 125 846.9 118.3C845 117.4 842.7 117.9 841.8 119.8 841.4 121.2 841.9 123.5 843.3 124L861.7 134.2 868.3 156.9 826.3 134.1C824.5 133.2 822.6 134.2 821.3 135.6 820.8 137 821.3 139.4 823.2 140.2ZM860.1 207.4L877.9 188.8 880.6 186 884.3 186.8 908.7 192.8 912.9 194.1 913.9 197.8 921 221.8 922 225.5 919.3 228.4 901.5 246.9 898.8 249.8 895.1 248.9 870.7 243 867 242.1 865.5 238 858.4 213.9 857.4 210.2 860.1 207.4Z" fill="rgba(189, 193, 196, 0.58)"></path><path d="M885.1 543.3L875.3 546.6 876.4 539.8C876.6 539 876.1 538.1 875.1 537.7 874.2 537.8 873.3 538.3 873.1 539.1L871.4 548.1 862.3 551.1 865.9 532.8C866 531.6 865.5 530.8 864.6 530.8 863.6 530.4 862.7 531 862.6 532.1L858.7 552.3 850.5 555.2 835.3 542.1 836.6 534.5 857.3 527.6C857.6 527.4 857.8 527.1 858 526.9 858.2 526.6 858.4 525.9 858.4 525.4 858 524.3 857.1 523.9 856.2 524.4L837.3 530.7 839.2 521.5 848.7 518C849 518.2 849.2 517.9 849.4 517.7 849.8 517.2 850 516.5 849.7 515.8 849.4 515.1 848.5 514.7 847.5 514.8L839.8 517.7 842 506.1C842.2 505.4 841.7 504.5 840.7 504.1 839.8 504.2 838.9 504.7 838.7 505.4L836.7 516.3 831.5 511.8C830.7 511.1 829.6 511.4 829.1 511.9 828.5 512.7 828.3 513.9 829.1 514.5L835.8 520.3 833.9 529.6 820 517.5C819.2 516.9 818.3 516.9 817.7 517.7 817 518.4 817.1 519.4 817.8 520L833.3 533.3 832 541.4 812.9 547.9 807.1 543 811 522.4C811.4 521.4 810.6 520.3 809.7 520.4 808.7 520 808.1 520.7 807.7 521.7L804.1 540.4 796.9 534.1 798.8 524.9C799 524.2 798.2 523.1 797.5 522.9S795.7 523.5 795.3 524.5L793.9 531.5 785.2 524C784.5 523.4 783.3 523.7 782.7 524.4 782.2 524.9 782.1 526.1 782.8 526.8L791.6 534.3 784.5 536.9C783.8 537.2 783.2 537.9 783.5 539.1 783.8 539.8 785 540.4 785.7 540.1L794.6 536.9 801.8 543.1 783.8 549.3C782.9 549.9 782.3 550.6 782.6 551.7 782.9 552.4 784.1 553 784.7 552.8L804.8 545.7 810.5 550.6 806.8 570.5 799.1 572.9 783.6 559.6C782.9 559 781.9 559 781.3 559.8 780.6 560.5 780.5 561.7 781.2 562.3L795.2 574.4 786.3 577.6 779.6 571.8C778.9 571.2 777.9 571.2 777.3 572 776.6 572.7 776.7 573.6 777.5 574.3L782.7 578.8 772.2 582.4C771.5 582.7 770.9 583.9 771.2 584.5 771.7 585.4 772.5 586.1 773.4 585.6L784.3 582 782.8 589.8C782.9 590.7 783.4 591.6 784.1 591.8 784.8 592 785.5 591.7 785.9 591.2 785.9 591.2 786.1 590.9 786.1 590.5L788.2 580.5 797 577.3 793.6 596.9C793.2 597.9 793.7 598.8 794.9 598.9 795.4 598.9 795.8 598.8 796.2 598.3 796.5 598.1 796.7 597.9 796.9 597.6L800.7 576.1 808 573.7 823.2 586.8 821.5 595.3 802.1 602.1C801 602.4 800.6 603.4 801.1 604.3 801.2 605.2 802.1 605.6 803.3 605.3L820.8 599.1 819.2 608.6 810.5 611.5C809.8 611.8 809.4 612.8 809.5 613.7 810 614.6 810.8 615.3 811.7 614.7L818.3 612.6 816.5 622.8C816.1 623.7 816.8 624.4 817.8 624.8 818.2 624.7 818.9 624.5 819.4 624 819.4 624 819.6 623.7 819.8 623.5L821.8 612.6 828 618C828.5 618.4 829.7 618.5 830.3 617.8 831 617 830.7 615.9 830.2 615.5L822.4 608.8 824.1 599.3 839.3 612.5C840 613.1 841.2 612.8 841.8 612.1S842.4 610.4 841.6 609.7L825 595.3 826.5 587.5 845.6 581 852.1 586.6 848 607.4C848.1 608.3 848.6 609.2 849.6 609.6 850 609.6 850.7 609.3 851.1 608.8 851.4 608.6 851.6 608.3 851.5 607.8L855.1 589.1 862.3 595.4 860.7 604.8C860.5 605.6 861 606.4 862 606.8 862.9 606.8 863.8 606.2 864 605.5L865.3 598 873.3 604.9C873.8 605.3 875.1 605.2 875.6 604.7 876.2 603.9 876.1 602.5 875.6 602.1L867.7 595.2 874.7 593.1C874.9 592.8 875.2 592.6 875.4 592.3 875.8 591.8 876 591.1 876 590.7 875.4 589.8 874.5 589.4 873.5 589.4L864.7 592.6 857.4 586.4 875.4 580.2C876.6 579.9 877 578.9 876.7 578.2 876.4 577.1 875.4 576.7 874.5 576.8L854.5 583.8 848 578.2 851.7 558.4 859.2 555.7 875.9 570.1C876.6 570.8 877.5 570.7 878.2 570 878.8 569.2 878.8 568.3 878 567.6L862.8 554.5 871.9 551.5 879.6 558.2C880.1 558.6 881.5 558.5 882.2 557.8 882.8 557 882.5 555.9 882 555.4L875.8 550.1 886.3 546.5C886.5 546.3 886.5 546.3 886.7 546 887.1 545.5 887.3 544.8 887.3 544.3 886.7 543.4 885.8 543 885.1 543.3ZM845 575.7L844.4 577.8 842.6 578.4 827.1 583.7 825.3 584.3 823.8 583 811.6 572.5 810.1 571.2 810.5 569.3 813.5 553.2 813.8 551.3 815.8 550.5 831.1 545.4 833.1 544.6 834.6 545.8 846.8 556.4 848.3 557.7 847.8 559.8 845 575.7Z" fill="rgba(189, 193, 196, 0.58)"></path></g><defs><mask id="SvgjsMask1298"><rect width="1481" height="657" fill="#ffffff"></rect></mask><filter id="SvgjsFilter1299"><feGaussianBlur stdDeviation="1"></feGaussianBlur></filter></defs></svg>